<?xml version="1.0" standalone="no"?>
<!DOCTYPE svg PUBLIC "-//W3C//DTD SVG 20010904//EN"
 "http://www.w3.org/TR/2001/REC-SVG-20010904/DTD/svg10.dtd">
<svg version="1.0" xmlns="http://www.w3.org/2000/svg"
 width="225.000000pt" height="225.000000pt" viewBox="0 0 225.000000 225.000000"
 preserveAspectRatio="xMidYMid meet">
<metadata>
Created by potrace 1.15, written by Peter Selinger 2001-2017
</metadata>
<g transform="translate(0.000000,225.000000) scale(0.100000,-0.100000)"
fill="#000000" stroke="none">
<path d="M908 2234 c-439 -80 -815 -459 -893 -901 -19 -113 -19 -303 0 -416
57 -320 272 -618 565 -780 168 -93 344 -137 545 -137 491 0 916 309 1075 780
50 147 65 384 35 553 -19 109 -72 257 -126 350 -168 288 -460 496 -776 552
-108 18 -319 18 -425 -1z m468 -177 c171 -48 311 -131 436 -259 43 -43 82 -87
87 -96 10 -20 35 -4 -365 -231 -89 -50 -164 -91 -168 -91 -3 0 -6 75 -6 166 0
91 -4 174 -10 184 -13 25 -65 41 -94 30 -53 -20 -56 -34 -56 -307 0 -229 2
-255 18 -270 9 -10 113 -69 229 -131 181 -97 217 -113 243 -107 16 4 37 16 45
28 18 26 20 77 3 100 -7 9 -74 49 -149 89 l-136 73 166 95 c91 52 212 121 269
153 57 33 105 57 106 56 14 -16 48 -113 66 -190 31 -128 32 -306 2 -436 -68
-297 -273 -546 -550 -668 -80 -35 -225 -75 -273 -75 l-26 0 -6 317 c-4 174 -5
319 -3 320 2 2 60 -32 129 -77 153 -98 175 -104 217 -62 36 36 39 71 8 106
-32 35 -414 276 -439 276 -6 0 -75 -37 -153 -82 -77 -45 -170 -97 -205 -117
-35 -20 -74 -46 -87 -58 -30 -28 -31 -71 -3 -107 35 -44 72 -36 219 49 71 41
134 75 140 75 7 0 10 -108 10 -320 l0 -320 -32 0 c-56 0 -198 39 -282 77 -107
48 -185 101 -274 187 -249 240 -350 587 -269 919 24 96 59 187 72 187 3 0 63
-33 133 -73 70 -41 189 -108 265 -151 75 -43 137 -79 137 -81 0 -2 -17 -11
-37 -22 -136 -69 -221 -118 -240 -139 -32 -35 -29 -70 7 -106 25 -25 36 -29
61 -24 36 7 415 210 447 239 22 20 22 24 22 264 0 271 -4 292 -61 312 -35 12
-81 -5 -99 -38 -6 -11 -10 -89 -10 -180 0 -89 -2 -161 -5 -161 -5 0 -416 233
-525 298 -20 12 3 45 89 132 118 118 267 204 424 245 132 34 128 34 282 30
112 -2 158 -8 231 -28z"/>
</g>
</svg>
